<svg version="1.0"
    xmlns="http://www.w3.org/2000/svg" width="100.000000pt" height="85.000000pt" viewBox="0 0 100.000000 85.000000" preserveAspectRatio="xMidYMid meet">
    <g transform="translate(0.000000,85.000000) scale(0.100000,-0.100000)" stroke="none">
        <path stroke="white" d="M214 598 c-55 -95 -106 -186 -114 -203 -9 -16 -24 -44 -34 -61 -35
-59 -25 -64 144 -64 123 0 152 3 156 15 3 8 -24 68 -61 134 -37 66 -65 124
-62 128 2 4 23 41 46 81 l43 73 50 -88 c28 -48 61 -106 72 -128 l22 -40 -33
-60 c-46 -82 -46 -83 -39 -100 8 -21 441 -23 449 -2 5 14 -196 376 -216 389
-22 14 -34 -1 -94 -115 -14 -26 -29 -49 -33 -52 -5 -3 -43 56 -86 130 -52 90
-83 135 -95 135 -11 0 -48 -56 -115 -172z m495 -141 l80 -137 -92 0 -92 0 -35
61 c-19 33 -34 63 -34 66 3 12 87 153 90 151 1 -2 39 -65 83 -141z"/>
        <path stroke="white" d="M50 230 c0 -6 140 -10 400 -10 260 0 400 4 400 10 0 7 -140 10 -400
10 -260 0 -400 -3 -400 -10z"/>
        <path stroke="white" d="M40 175 c0 -13 52 -15 410 -15 358 0 410 2 410 15 0 13 -52 15 -410
15 -358 0 -410 -2 -410 -15z"/>
        <path stroke="white" d="M50 120 c0 -6 140 -10 400 -10 260 0 400 4 400 10 0 7 -140 10 -400
10 -260 0 -400 -3 -400 -10z"/>
    </g>
</svg>